<svg width="1024" height="294" viewBox="0 0 1024 294" fill="none" xmlns="http://www.w3.org/2000/svg">
<g clip-path="url(#clip0_1513_6)">
<path d="M293.117 145.352C292.817 144.751 292.216 144.451 291.615 143.85L279.002 136.042C279.002 134.841 278.702 133.639 278.702 132.738L289.513 122.828C291.315 121.327 291.315 118.624 289.814 116.822C289.513 116.221 288.913 115.921 288.312 115.621L274.498 110.515C274.197 109.314 273.897 108.413 273.597 107.212L282.306 95.1993C283.807 93.3974 283.207 90.6946 281.405 89.1931C280.804 88.8927 280.204 88.5924 279.603 88.5924L264.888 86.1899C264.287 85.289 263.987 84.0877 263.386 83.1868L269.393 69.6727C270.294 67.5705 269.392 65.1679 267.29 63.9667C266.69 63.6664 266.089 63.6664 265.488 63.6664L250.773 64.267C250.172 63.3661 249.272 62.4652 248.671 61.8645L251.974 47.4495C252.575 45.0469 251.073 42.9448 248.971 42.3442C248.371 42.0439 247.77 42.0439 247.169 42.3442L232.754 45.6476C231.853 45.047 230.952 44.146 230.352 43.5454L230.952 28.8301C230.952 26.4276 229.15 24.6257 226.748 24.3254C226.147 24.3254 225.547 24.3254 224.946 24.6257L211.432 30.632C210.531 30.0314 209.33 29.4307 208.429 29.1304L206.026 14.415C205.726 12.0125 203.624 10.511 201.221 10.8113C200.621 10.8113 200.02 11.1116 199.419 11.4119L187.407 20.121C186.206 19.8207 185.305 19.5203 184.104 19.22L178.998 5.4056C178.097 3.30341 175.695 2.10219 173.593 3.00313C172.992 3.30345 172.391 3.60374 172.091 4.20437L162.181 15.0157C160.979 15.0157 160.078 14.7153 158.877 14.7153L151.069 2.10223C150.168 0.900976 148.967 0 147.465 0C145.964 0 144.462 0.600663 143.862 2.10223L136.053 14.7153C134.852 14.7153 133.651 15.0157 132.75 15.0157L122.84 4.20437C121.338 2.40249 118.635 2.40247 116.833 3.90404C116.233 4.20435 115.932 4.80497 115.632 5.4056L110.527 19.22C109.326 19.5203 108.425 19.8207 107.223 20.121L95.2109 11.4119C93.409 9.9103 90.7062 10.511 89.2046 12.3129C88.9043 12.9135 88.6038 13.5141 88.6038 14.1148L86.2015 28.8301C85.3006 29.4307 84.0993 29.731 83.1984 30.3317L69.6843 24.3254C67.5821 23.4244 65.1795 24.3253 63.9783 26.4275C63.6779 27.0282 63.678 27.6288 63.678 28.2294L64.2785 42.9448C63.3776 43.5454 62.4765 44.4464 61.8758 45.047L47.461 41.7435C45.0585 41.1429 42.9561 42.6445 42.3555 44.7467C42.0552 45.3473 42.0552 45.9479 42.3555 46.5485L45.6592 60.9635C45.0586 61.8645 44.1574 62.7655 43.5568 63.3661L28.8414 62.7654C26.4389 62.7654 24.637 64.5673 24.3367 66.9698C24.3367 67.5704 24.337 68.1711 24.6373 68.7717L30.6436 82.2858C30.0429 83.1867 29.4423 84.388 29.142 85.2889L14.4266 87.6915C12.0241 87.9918 10.5223 90.0939 10.8226 92.4964C10.8226 93.0971 11.1231 93.6977 11.4234 94.2983L20.1326 106.311C19.8323 107.512 19.5318 108.413 19.2315 109.614L5.41718 114.72C3.31499 115.621 2.11359 118.023 3.01453 120.125C3.31484 120.726 3.61523 121.327 4.21585 121.627L15.0271 131.537C15.0271 132.738 14.7268 133.639 14.7268 134.841L2.11381 142.649C0.0116137 143.85 -0.589013 146.553 0.61224 148.355C0.912553 148.955 1.51318 149.256 2.11381 149.856L14.7268 157.664C14.7268 158.866 15.0271 160.067 15.0271 160.968L4.21585 170.878C2.41397 172.38 2.41405 175.083 3.91561 176.885C4.21593 177.485 4.81655 177.785 5.41718 178.086L19.2315 183.191C19.5318 184.392 19.8323 185.293 20.1326 186.494L11.4234 198.507C9.92188 200.309 10.5223 203.012 12.3242 204.513C12.9248 204.814 13.5257 205.114 14.1263 205.114L28.8414 207.516C29.442 208.417 29.7423 209.619 30.343 210.519L24.3367 224.034C23.4358 226.136 24.3369 228.538 26.4391 229.74C27.0397 230.04 27.6403 230.04 28.2409 230.04L42.9563 229.439C43.557 230.34 44.4578 231.241 45.0584 231.842L41.755 246.257C41.1544 248.659 42.6559 250.762 44.7581 251.362C45.3588 251.663 45.9593 251.663 46.5599 251.362L60.9751 248.059C61.8761 248.659 62.7768 249.56 63.3774 250.161L62.7769 264.876C62.7769 267.279 64.5789 269.081 66.9814 269.381C67.582 269.381 68.1826 269.381 68.7832 269.081L82.2973 263.074C83.1982 263.675 84.3995 264.276 85.3004 264.576L87.7031 279.291C88.0034 281.694 90.1055 283.195 92.508 282.895C93.1086 282.895 93.7092 282.595 94.3098 282.294L106.322 273.585C107.524 273.886 108.424 274.186 109.626 274.486L114.731 288.301C115.632 290.403 118.034 291.604 120.137 290.703C120.737 290.403 121.338 290.103 121.638 289.502L131.549 278.691C132.75 278.691 133.651 278.991 134.852 278.991L142.66 291.604C143.861 293.706 146.564 294.307 148.366 293.106C148.967 292.805 149.267 292.205 149.868 291.604L157.676 278.991C158.877 278.991 159.778 278.691 160.979 278.691L170.89 289.502C172.391 291.304 175.094 291.304 176.896 289.802C177.497 289.502 177.797 288.901 178.097 288.301L183.202 274.486C184.404 274.186 185.305 273.886 186.506 273.585L198.518 282.294C200.32 283.796 203.023 283.195 204.525 281.394C204.825 280.793 205.125 280.192 205.125 279.592L207.528 264.876C208.429 264.276 209.63 263.975 210.531 263.375L224.045 269.381C226.147 270.282 228.55 269.381 229.751 267.279C230.051 266.678 230.051 266.078 230.051 265.477L229.451 250.762C230.352 250.161 231.253 249.26 231.853 248.659L246.268 251.963C248.671 252.563 250.773 251.062 251.374 248.96C251.674 248.359 251.674 247.758 251.374 247.158L248.07 232.743C248.671 231.842 249.572 230.941 250.172 230.34L264.888 230.941C267.29 230.941 269.092 229.139 269.393 226.736C269.393 226.136 269.392 225.535 269.092 224.935L263.086 211.421C263.686 210.52 264.287 209.318 264.587 208.417L279.303 206.015C281.705 205.714 283.207 203.612 282.907 201.21C282.907 200.609 282.606 200.009 282.306 199.408L273.597 187.396C273.897 186.194 274.197 185.293 274.498 184.092L288.312 178.987C290.414 178.086 291.616 175.683 290.715 173.581C290.414 172.98 290.114 172.38 289.513 172.079L278.702 162.169C278.702 160.968 279.002 160.067 279.002 158.866L291.615 151.058C293.718 149.856 294.318 147.454 293.117 145.352ZM254.076 154.661H242.965C241.764 154.661 241.463 155.262 241.463 156.463V161.568C241.463 173.581 234.857 175.984 228.85 176.885C223.144 177.485 217.138 174.482 216.237 171.179C212.933 152.559 207.528 148.655 198.819 141.748C209.63 134.841 221.042 124.63 221.042 111.116C221.042 96.4005 211.132 87.0908 204.224 82.5861C194.614 76.2796 184.104 75.0783 181.1 75.0783H66.9814C82.898 57.3598 103.92 45.3473 127.344 41.1429L140.858 55.2576C143.862 58.5611 148.967 58.5611 151.97 55.5579L166.985 41.1429C198.218 46.8489 224.946 66.0689 240.562 93.6978L230.352 117.122C228.55 121.026 230.352 125.831 234.256 127.633L254.076 136.342C254.377 142.048 254.677 148.355 254.076 154.661ZM205.125 218.027C200.921 217.126 196.716 219.829 195.515 224.034L191.011 244.455C162.481 257.368 129.747 257.368 101.217 244.155L96.7125 223.733C95.8115 219.529 91.6069 216.526 87.4025 217.727L69.3837 221.631C66.0802 218.027 62.7769 214.424 60.074 210.519H148.066C148.967 210.519 149.868 210.219 149.868 209.318V178.086C149.868 177.185 149.267 176.885 148.066 176.885H122.239V157.064H150.168C152.571 157.064 163.682 157.664 167.286 171.779C168.487 175.984 170.89 190.098 172.391 194.903C174.193 200.009 180.8 210.219 188.007 210.219H233.355C230.352 214.424 227.048 218.027 223.445 221.631L205.125 218.027ZM219.841 237.848C219.841 242.653 215.937 246.557 211.132 246.557C206.327 246.557 202.423 242.653 202.423 237.848C202.423 233.043 206.327 229.139 211.132 229.139H211.432C215.937 229.139 219.841 233.043 219.841 237.848ZM90.1054 237.548C90.1054 242.353 86.2012 246.257 81.3962 246.257C76.5912 246.257 72.6874 242.353 72.6874 237.548C72.6874 232.743 76.5912 228.839 81.3962 228.839H81.6968C86.5018 228.839 90.1054 232.743 90.1054 237.548ZM43.2566 175.983C39.3525 162.77 38.1514 148.655 39.653 134.841L58.5725 126.432C62.4765 124.63 64.2786 119.825 62.4767 115.921L58.5725 107.212H73.8884V175.983H43.2566ZM42.0552 105.71C47.1606 105.71 50.7644 109.614 50.7644 114.419C50.7644 119.224 46.8603 123.128 42.0552 123.128C37.2502 123.128 33.3461 119.224 33.3461 114.419C33.3461 109.614 37.2502 105.71 42.0552 105.71ZM122.239 128.234V107.812H158.577C160.379 107.812 171.791 109.915 171.791 118.624C171.791 125.831 163.082 128.234 155.874 128.234H122.239ZM137.555 35.1367C137.555 30.3317 141.459 26.4275 146.264 26.4275H146.564C151.369 26.4275 154.973 30.3317 154.973 35.1367C154.973 39.9417 151.069 43.8457 146.264 43.8457C141.459 43.8457 137.555 39.9417 137.555 35.1367ZM250.473 123.429C245.668 123.429 241.764 119.525 241.764 114.72C241.764 109.915 245.668 106.011 250.473 106.011H250.773C255.578 106.011 259.182 109.915 259.182 114.72C259.182 119.525 255.278 123.429 250.473 123.429Z" fill="white"/>
<path d="M331.557 133.038H346.274C347.178 133.038 347.774 132.738 348.375 132.138C348.972 131.538 349.28 130.937 349.28 130.036V106.01H359.49L371.804 130.035C372.105 130.936 372.707 131.537 373.606 132.137C374.203 132.738 375.407 133.038 376.608 133.038H391.924C392.521 133.038 393.126 132.738 393.727 132.438C394.323 131.837 394.323 131.236 394.323 130.636C394.323 130.336 394.323 129.735 394.022 129.435L380.208 102.707C389.218 98.5024 393.422 91.2949 393.422 80.4836C393.422 72.0749 390.718 65.4679 385.012 61.2635C379.608 57.0591 371.8 54.957 361.889 54.957H331.557C330.653 54.957 330.055 55.2571 329.455 55.8574C328.858 56.4578 328.551 57.0587 328.551 57.9597V130.035C328.551 130.935 328.852 131.536 329.455 132.137C330.052 132.737 330.957 133.038 331.557 133.038ZM349.276 72.0749H361.89C369.096 72.0749 372.7 74.7777 372.7 80.4837C372.7 85.8893 369.096 88.8925 361.89 88.8925H349.276V72.0749Z" fill="white"/>
<path d="M424.653 130.335C429.758 132.738 435.764 133.939 442.672 133.939C449.579 133.939 455.285 132.738 460.39 130.335C465.495 127.933 469.399 124.329 472.403 119.524C475.105 114.719 476.607 109.013 476.607 102.406V57.9598C476.607 57.0593 476.306 56.4582 475.702 55.8575C475.106 55.2572 474.501 54.957 473.601 54.957H458.885C457.98 54.957 457.383 55.2572 456.783 55.8575C456.186 56.4579 455.878 57.0588 455.878 57.9598V102.106C455.878 106.61 454.677 110.214 452.575 112.617C450.173 115.019 446.869 116.221 442.665 116.221C438.46 116.221 435.157 115.019 432.755 112.617C430.352 110.214 429.451 106.61 429.451 102.106V57.9598C429.451 57.0593 429.15 56.4582 428.546 55.8575C427.95 55.2572 427.345 54.957 426.444 54.957H411.729C410.824 54.957 410.227 55.2572 409.626 55.8575C409.03 56.4579 408.723 57.0588 408.723 57.9598V102.406C408.723 109.013 410.224 114.719 412.928 119.524C415.33 124.329 419.534 127.933 424.64 130.335H424.653Z" fill="white"/>
<path d="M505.739 130.634C510.845 132.737 516.851 133.938 523.157 133.938C529.764 133.938 535.77 133.037 540.876 130.935C545.981 128.833 550.186 126.13 553.188 122.526C556.192 118.922 557.693 114.418 557.693 109.613C557.693 102.705 555.591 97.6001 551.687 93.9963C547.783 90.3925 541.476 87.6896 533.068 85.8878C526.46 84.6865 521.956 83.4853 519.253 82.8847C516.55 82.2843 514.749 81.3831 513.247 80.4822C512.046 79.5818 511.445 78.38 511.445 76.8784C511.445 74.7763 512.349 73.2747 514.448 72.3737C516.55 71.4732 519.253 71.1724 522.256 71.1724C524.66 71.1724 526.46 71.4727 528.262 72.073C530.064 72.6734 531.266 73.5746 532.167 74.4754C533.071 75.376 533.368 75.9771 533.668 75.9771C534.265 76.5774 535.17 77.1783 535.77 77.4786C536.376 77.7787 537.272 77.7787 538.173 77.7787H552.888C553.485 77.7787 554.09 77.4786 554.39 77.1784C554.987 76.5781 554.987 75.9771 554.987 75.3765C554.987 72.073 553.185 68.7696 550.482 65.4662C547.479 62.1627 543.575 59.1596 538.77 57.0574C533.664 54.6549 528.258 53.7539 522.253 53.7539C515.946 53.7539 510.54 54.9553 505.736 57.0574C500.93 59.1596 497.327 62.1627 494.624 65.7665C491.921 69.3703 490.72 73.5746 490.72 77.779C490.72 84.0856 492.521 89.1909 496.125 93.095C499.73 96.999 505.135 99.7019 512.944 101.203L518.048 102.104C523.154 103.305 527.058 104.206 529.46 104.807C531.863 105.407 533.664 106.008 534.866 106.909C536.067 107.809 536.968 108.711 536.968 110.212C536.968 114.116 532.463 116.219 523.154 116.219C520.451 116.219 518.048 115.918 516.246 115.017C514.144 114.117 512.943 113.216 511.742 112.014C510.837 110.813 510.24 110.212 509.94 109.912C508.738 109.012 507.237 108.411 505.736 108.411H491.02C490.423 108.411 489.819 108.711 489.519 109.011C488.922 109.611 488.922 110.212 488.922 110.813C488.922 114.717 490.724 118.321 493.728 121.924C496.43 125.528 500.333 128.532 505.739 130.634Z" fill="white"/>
<path d="M563.402 72.6747H582.923V130.035C582.923 130.935 583.224 131.536 583.827 132.137C584.423 132.737 585.028 133.037 585.929 133.037H600.644C601.548 133.037 602.145 132.737 602.746 132.137C603.342 131.536 603.65 130.936 603.65 130.035V72.6747H623.171C624.075 72.6747 624.672 72.3745 625.273 71.7741C625.869 71.1738 626.177 70.573 626.177 69.672V57.9598C626.177 57.0593 625.876 56.4582 625.273 55.8576C624.676 55.2572 624.071 54.957 623.171 54.957H563.108C562.204 54.957 561.606 55.2572 561.005 55.8576C560.409 56.4579 560.102 57.0588 560.102 57.9598V69.672C560.102 70.5726 560.403 71.1735 561.005 71.7741C561.91 72.3744 562.807 72.6747 563.408 72.6747H563.402Z" fill="white"/>
<path d="M663.401 133.037H715.055C715.959 133.037 716.556 132.737 717.157 132.137C717.754 131.536 718.061 130.935 718.061 130.034V118.322C718.061 117.422 717.763 116.821 717.157 116.22C716.552 115.62 715.956 115.32 715.055 115.32H681.119V57.9598C681.119 57.0593 680.821 56.4582 680.215 55.8576C679.618 55.2573 679.013 54.957 678.113 54.957H663.397C662.493 54.957 661.895 55.2573 661.295 55.8576C660.698 56.4579 660.391 57.0588 660.391 57.9598V130.035C660.391 130.935 660.69 131.537 661.295 132.137C661.594 132.738 662.497 133.038 663.397 133.038L663.401 133.037Z" fill="white"/>
<path d="M729.172 133.038H743.287C744.489 133.038 745.389 132.738 746.29 132.137C746.887 131.537 747.491 130.936 747.791 130.035L750.795 120.725H780.526L783.528 130.035C783.827 130.635 784.125 131.537 785.03 132.137C785.636 132.738 786.832 133.038 788.034 133.038H802.148C802.745 133.038 803.35 132.738 803.95 132.437C804.547 131.837 804.547 131.236 804.547 130.635C804.547 130.335 804.547 129.735 804.249 128.834L779.924 58.5603C779.625 57.6589 779.019 56.7585 778.122 55.8576C777.217 55.2572 776.32 54.6562 774.818 54.6562H756.799C755.598 54.6562 754.397 54.9565 753.496 55.8576C752.591 56.4579 751.994 57.359 751.694 58.5603L727.369 128.834C727.07 129.434 727.07 130.035 727.07 130.635C727.07 131.236 727.369 131.837 727.667 132.437C727.965 132.738 728.571 133.038 729.169 133.038H729.172ZM765.51 76.8791L774.52 103.607H756.501L765.51 76.8791Z" fill="white"/>
<path d="M799.744 72.6747H819.265V130.035C819.265 130.935 819.563 131.536 820.169 132.137C820.766 132.737 821.371 133.037 822.271 133.037H836.987C837.891 133.037 838.488 132.737 839.089 132.137C839.686 131.536 839.993 130.936 839.993 130.035V72.6747H859.514C860.418 72.6747 861.015 72.3745 861.616 71.7741C862.212 71.1738 862.52 70.573 862.52 69.672V57.9598C862.52 57.0593 862.221 56.4582 861.616 55.8576C861.019 55.2572 860.415 54.957 859.514 54.957H799.452C798.547 54.957 797.95 55.2572 797.349 55.8576C796.744 56.4579 796.445 57.0588 796.445 57.9598V69.672C796.445 70.5726 796.744 71.1735 797.349 71.7741C798.254 72.3744 798.85 72.6747 799.752 72.6747H799.744Z" fill="white"/>
<path d="M855.307 130.335C855.307 130.935 855.606 131.536 855.904 132.136C856.51 132.737 857.106 132.737 857.706 132.737H871.821C873.022 132.737 873.924 132.437 874.824 131.836C875.728 131.236 876.026 130.635 876.326 129.734L879.329 120.425H909.059L912.063 129.734C912.361 130.335 912.66 131.236 913.565 131.836C914.161 132.437 915.367 132.737 916.567 132.737H930.682C931.279 132.737 931.884 132.437 932.484 132.136C933.081 131.536 933.081 130.935 933.081 130.335C933.081 130.035 933.081 129.434 932.782 128.533L908.456 58.2595C908.158 57.3589 907.552 56.4576 906.654 55.5567C905.75 54.9563 904.852 54.3555 903.352 54.3555H885.332C884.131 54.3555 882.93 54.6556 882.029 55.5567C881.125 56.1571 880.528 57.0582 880.227 58.2595L855.901 128.533C855.305 129.433 855.307 130.034 855.307 130.335ZM894.048 76.8789L903.057 103.607H885.038L894.048 76.8789Z" fill="white"/>
<path d="M945.095 133.038H959.81C960.714 133.038 961.311 132.737 961.912 132.137C962.509 131.537 962.816 130.936 962.816 130.035V93.0964L973.327 111.415C973.923 112.316 974.528 112.917 975.129 113.518C975.725 114.118 976.63 114.418 977.531 114.418H984.739C985.643 114.418 986.541 114.118 987.141 113.518C987.738 112.917 988.343 112.316 988.943 111.415L999.454 93.0964V130.035C999.454 130.935 999.753 131.536 1000.36 132.137C1000.96 132.737 1001.56 133.038 1002.46 133.038H1017.18C1018.08 133.038 1018.68 132.737 1019.28 132.137C1019.88 131.537 1020.18 130.936 1020.18 130.035V57.9598C1020.18 57.0593 1019.88 56.4582 1019.28 55.8576C1018.67 55.2572 1018.08 54.957 1017.18 54.957H1004.26C1002.16 54.957 1000.66 55.8576 999.458 57.9602L981.439 88.8925L963.42 57.9602C962.219 55.858 960.717 54.957 958.615 54.957H945.702C944.797 54.957 944.2 55.2572 943.599 55.8576C943.003 56.4579 942.695 57.0588 942.695 57.9598V130.035C942.695 130.935 942.994 131.536 943.599 132.137C943.599 132.737 944.196 133.038 945.101 133.038H945.095Z" fill="white"/>
<path fill-rule="evenodd" clip-rule="evenodd" d="M334 156C330.134 156 327 159.134 327 163V235C327 238.866 330.134 242 334 242H1016C1019.87 242 1023 238.866 1023 235V163C1023 159.134 1019.87 156 1016 156H334ZM386.67 209.158C386.67 203.702 383.57 199.982 378.734 198.432C382.268 196.572 384.5 193.224 384.5 188.884C384.5 182.126 378.92 177.6 368.07 177.6H346.866V221H369.31C380.718 221 386.67 216.66 386.67 209.158ZM356.848 185.164H366.83C371.728 185.164 374.394 186.838 374.394 190.248C374.394 193.658 371.728 195.394 366.83 195.394H356.848V185.164ZM368.566 213.436H356.848V202.71H368.566C373.774 202.71 376.564 204.446 376.564 208.104C376.564 211.824 373.774 213.436 368.566 213.436ZM393.902 201.904C393.902 214.676 401.218 221.744 413.556 221.744C425.894 221.744 433.21 214.676 433.21 201.904V177.6H423.29V201.532C423.29 209.778 419.756 213.188 413.618 213.188C407.542 213.188 403.946 209.778 403.946 201.532V177.6H393.902V201.904ZM453.117 212.94V202.896H473.267V195.084H453.117V185.66H475.933V177.6H443.135V221H476.739V212.94H453.117ZM514.615 177.6V203.95L493.039 177.6H484.731V221H494.651V194.65L516.289 221H524.535V177.6H514.615ZM532.075 199.3C532.075 212.196 542.119 221.744 555.821 221.744C569.461 221.744 579.567 212.258 579.567 199.3C579.567 186.342 569.461 176.856 555.821 176.856C542.119 176.856 532.075 186.404 532.075 199.3ZM569.399 199.3C569.399 207.546 563.571 213.188 555.821 213.188C548.071 213.188 542.243 207.546 542.243 199.3C542.243 191.054 548.071 185.412 555.821 185.412C563.571 185.412 569.399 191.054 569.399 199.3ZM583.706 216.722C587.55 219.698 594.494 221.744 601.376 221.744C613.776 221.744 619.79 215.544 619.79 208.29C619.79 198.964 611.145 196.986 603.975 195.347C598.895 194.185 594.556 193.193 594.556 189.876C594.556 187.148 596.85 184.916 602.802 184.916C606.646 184.916 610.8 186.032 614.83 188.326L617.93 180.7C613.9 178.158 608.32 176.856 602.864 176.856C590.526 176.856 584.574 182.994 584.574 190.372C584.574 199.8 593.205 201.805 600.372 203.47C605.459 204.652 609.808 205.662 609.808 209.034C609.808 211.7 607.39 213.684 601.438 213.684C596.23 213.684 590.774 211.824 587.116 209.158L583.706 216.722ZM676.637 221H687.177L667.771 177.6H657.851L638.507 221H648.799L652.643 211.7H672.793L676.637 221ZM655.867 204.074L662.749 187.458L669.631 204.074H655.867ZM691.68 221H701.724V177.6H691.68V221ZM750.464 221L740.73 207.05C746.372 204.632 749.658 199.858 749.658 193.348C749.658 183.614 742.404 177.6 730.81 177.6H712.024V221H722.068V208.91H730.81H731.306L739.676 221H750.464ZM730.252 185.784C736.39 185.784 739.49 188.574 739.49 193.348C739.49 198.06 736.39 200.912 730.252 200.912H722.068V185.784H730.252ZM767.598 212.94V202.896H787.748V195.084H767.598V185.66H790.414V177.6H757.616V221H791.22V212.94H767.598ZM795.801 216.722C799.645 219.698 806.589 221.744 813.471 221.744C825.871 221.744 831.885 215.544 831.885 208.29C831.885 198.964 823.24 196.986 816.07 195.347C810.991 194.185 806.651 193.193 806.651 189.876C806.651 187.148 808.945 184.916 814.897 184.916C818.741 184.916 822.895 186.032 826.925 188.326L830.025 180.7C825.995 178.158 820.415 176.856 814.959 176.856C802.621 176.856 796.669 182.994 796.669 190.372C796.669 199.8 805.301 201.805 812.468 203.47C817.555 204.652 821.903 205.662 821.903 209.034C821.903 211.7 819.485 213.684 813.533 213.684C808.325 213.684 802.869 211.824 799.211 209.158L795.801 216.722ZM867.343 212.816L877.325 203.392C883.401 197.75 884.579 193.906 884.579 189.69C884.579 181.816 878.131 176.856 868.459 176.856C860.647 176.856 854.571 180.018 851.223 184.916L858.539 189.628C860.647 186.714 863.809 185.288 867.529 185.288C872.117 185.288 874.473 187.272 874.473 190.682C874.473 192.79 873.791 195.022 869.947 198.68L853.207 214.49V221H886.005V212.816H867.343ZM890.149 199.3C890.149 213.622 898.085 221.744 908.749 221.744C919.475 221.744 927.349 213.622 927.349 199.3C927.349 184.978 919.475 176.856 908.749 176.856C898.085 176.856 890.149 184.978 890.149 199.3ZM917.243 199.3C917.243 209.158 913.771 213.25 908.749 213.25C903.789 213.25 900.317 209.158 900.317 199.3C900.317 189.442 903.789 185.35 908.749 185.35C913.771 185.35 917.243 189.442 917.243 199.3ZM945.751 212.816L955.733 203.392C961.809 197.75 962.987 193.906 962.987 189.69C962.987 181.816 956.539 176.856 946.867 176.856C939.055 176.856 932.979 180.018 929.631 184.916L936.947 189.628C939.055 186.714 942.217 185.288 945.937 185.288C950.525 185.288 952.881 187.272 952.881 190.682C952.881 192.79 952.199 195.022 948.355 198.68L931.615 214.49V221H964.413V212.816H945.751ZM1007.69 203.702H1000.63V195.58H991.14V203.702H979.484L998.456 177.6H987.916L967.456 205.128V211.886H990.83V221H1000.63V211.886H1007.69V203.702Z" fill="white"/>
</g>
<defs>
<clipPath id="clip0_1513_6">
<rect width="1023.32" height="293.718" fill="white"/>
</clipPath>
</defs>
</svg>
